<svg xmlns="http://www.w3.org/2000/svg" width="26" height="27" viewBox="0 0 26 27" fill="none">
  <g clip-path="url(#clip0_715_7291)">
    <path fill-rule="evenodd" clip-rule="evenodd" d="M19.8943 6.60573C19.577 6.28843 19.0625 6.28843 18.7452 6.60573L13 12.351L7.25476 6.60573C6.93746 6.28843 6.42301 6.28843 6.10571 6.60573C5.78841 6.92303 5.78841 7.43748 6.10571 7.75478L11.851 13.5L6.10571 19.2453C5.78841 19.5626 5.78841 20.077 6.10571 20.3943C6.42301 20.7116 6.93746 20.7116 7.25476 20.3943L13 14.6491L18.7452 20.3943C19.0625 20.7116 19.577 20.7116 19.8943 20.3943C20.2116 20.077 20.2116 19.5626 19.8943 19.2453L14.149 13.5L19.8943 7.75478C20.2116 7.43748 20.2116 6.92303 19.8943 6.60573Z" fill="#42403F"/>
  </g>
  <defs>
    <clipPath id="clip0_715_7291">
      <rect width="26" height="26" fill="white" transform="translate(0 0.5)"/>
    </clipPath>
  </defs>
</svg>